<svg width="24" height="24" viewBox="0 0 24 24" fill="none" xmlns="http://www.w3.org/2000/svg">
<g clip-path="url(#clip0_5709_24558)">
<path fill-rule="evenodd" clip-rule="evenodd" d="M3.37978 0.137643L3.37769 0.136935C2.92641 -0.0171159 2.44097 -0.041739 1.9764 0.0658624C1.51127 0.173594 1.08563 0.409567 0.747887 0.747048C0.410142 1.08454 0.173852 1.51 0.0659605 1.97511C-0.0419323 2.44025 -0.0170777 2.92629 0.137687 3.37798L0.948555 3.10015C0.13794 3.37872 0.137638 3.37783 0.137687 3.37798L0.139125 3.38217L0.142657 3.39245L0.15661 3.43305L0.211045 3.59146L0.417731 4.19294L1.15605 6.34176C1.76741 8.12122 2.5834 10.4965 3.40186 12.8798C4.22033 15.2631 5.04124 17.6544 5.66249 19.4659C5.97314 20.3717 6.23379 21.1323 6.41925 21.6744L6.63763 22.314L6.69813 22.4921L6.71494 22.5422C6.71748 22.5499 6.71796 22.5513 6.71715 22.5487C6.82817 22.9082 6.99273 23.2227 7.27133 23.5011C7.59111 23.8207 8.02469 24 8.47665 24C8.9286 24 9.36218 23.8207 9.68196 23.5011C9.8052 23.3779 9.91623 23.2442 10.0121 23.0559C10.0881 22.9066 10.146 22.7366 10.1994 22.5795L10.202 22.572C10.2606 22.4001 11.0903 20.0069 11.9075 17.6506L13.0225 14.4364L13.3873 13.3851L13.39 13.3771L13.4017 13.373L14.4604 12.9988C15.3376 12.6886 16.5101 12.2738 17.6911 11.8556C20.0263 11.0285 22.4623 10.164 22.625 10.0963C22.647 10.0871 22.6735 10.0768 22.7037 10.0651C22.894 9.99153 23.2302 9.86145 23.5003 9.59146C23.8202 9.2719 24.0001 8.83834 24.0001 8.38613C24.0001 7.93394 23.8202 7.50038 23.5003 7.18082L23.4873 7.16715C23.4441 7.12155 23.3161 6.98633 23.1758 6.88694C22.9874 6.75346 22.7781 6.66806 22.5364 6.59714C22.5376 6.5975 22.5366 6.59719 22.5328 6.59595L22.4726 6.57646L22.2859 6.51482C22.1281 6.46238 21.9071 6.38856 21.6316 6.29628C21.081 6.11179 20.3152 5.85429 19.4065 5.54834C17.5893 4.93646 15.2025 4.13121 12.8276 3.32942C10.4527 2.52765 8.0899 1.72941 6.32079 1.13161L4.18515 0.409874L3.58764 0.207907L3.43032 0.154724L3.38998 0.141093L3.37978 0.137643Z" fill="white"/>
</g>
<defs>
<clipPath id="clip0_5709_24558">
<rect width="24" height="24" fill="white"/>
</clipPath>
</defs>
</svg>
